<svg xmlns="http://www.w3.org/2000/svg" viewBox="0 0 96 96">
  <defs>
    <linearGradient id="g1" x1="0" x2="1" y1="0" y2="1">
      <stop offset="0%" stop-color="#1877c2"/>
      <stop offset="100%" stop-color="#36d399"/>
    </linearGradient>
  </defs>
  <path d="M48 8C67 17 84 20 84 37c0 38-27.5 50-36 54C39.5 87 12 75 12 37c0-17 17-20 36-29z"
    fill="#fff" stroke="url(#g1)" stroke-width="5"/>
  <g stroke="#1877c2" stroke-width="1.7">
    <circle cx="48" cy="27" r="5" fill="#36d399"/>
    <circle cx="33" cy="40" r="3.5" fill="#95dbfa"/>
    <circle cx="63" cy="40" r="3.5" fill="#95dbfa"/>
    <circle cx="41" cy="56" r="3.5" fill="#5ad7ba"/>
    <circle cx="55" cy="56" r="3.5" fill="#5ad7ba"/>
    <line x1="48" y1="27" x2="33" y2="40"/>
    <line x1="48" y1="27" x2="63" y2="40"/>
    <line x1="33" y1="40" x2="41" y2="56"/>
    <line x1="63" y1="40" x2="55" y2="56"/>
    <line x1="41" y1="56" x2="55" y2="56"/>
  </g>
</svg>